<svg width="11" height="13" viewBox="0 0 11 13" fill="none" xmlns="http://www.w3.org/2000/svg">
<path d="M6.59079 11.9991C6.71861 11.9754 6.84875 11.9482 6.98123 11.9175C9.08194 11.3172 10.5963 9.62716 10.5963 7.63382C10.5957 7.28795 10.5488 6.94373 10.4568 6.61031C10.4135 6.91342 10.3085 7.20444 10.1483 7.46538C9.98808 7.72632 9.77607 7.95165 9.52537 8.12745C10.765 4.95233 7.38491 4.02224 7.58571 2.08886C7.47964 2.16541 7.38763 2.25977 7.3138 2.36775C7.1102 2.67664 6.9824 3.02923 6.94079 3.39684C6.90035 3.77821 6.68282 3.94973 6.40532 3.94276H6.38789C5.56448 3.89674 4.25999 2.32034 5.46269 0L2.50649 2.71914C1.16365 4.04873 0.863851 5.20263 1.01933 6.19407C1.05498 6.41851 1.11242 6.63894 1.19085 6.85224C1.19302 6.85771 1.19488 6.86329 1.19642 6.86897C1.24802 7.00842 1.30589 7.14368 1.37003 7.27475C1.89434 8.70474 0.0815745 8.80863 0.139443 6.60194C0.0467975 6.93783 -0.000106695 7.28469 1.82238e-07 7.63312C1.82238e-07 8.78283 0.374405 9.83423 1.41744 10.758C2.06794 8.83164 2.79165 7.64219 3.38568 6.91848C3.61897 6.62715 3.88417 6.36288 4.17632 6.13062C4.30954 6.02071 4.45649 5.9286 4.61348 5.85662C3.34385 5.11617 3.33478 3.30062 3.33478 3.30062C3.86258 4.09126 4.80661 4.89864 6.2868 5.60771C6.32793 5.62793 6.36907 5.64745 6.4109 5.66628C8.48582 6.63401 7.93711 7.85205 7.93711 7.85205C7.56549 7.40932 6.79646 7.02585 6.79646 7.02585L7.02445 7.81091C7.83601 7.85553 8.25016 8.11908 8.4412 8.45165C8.82815 9.12516 8.30175 10.081 8.30175 10.081C8.33383 9.88862 8.14 9.441 7.79906 9.04568C7.58259 8.78206 7.3056 8.57467 6.99168 8.4412C6.82156 8.37614 6.63966 8.3476 6.45779 8.35741C6.27592 8.36722 6.09815 8.41517 5.93601 8.49814C5.77388 8.58112 5.631 8.69726 5.51667 8.83904C5.40233 8.98081 5.31909 9.14505 5.27235 9.32108C4.96627 10.5356 6.59079 11.9991 6.59079 11.9991ZM5.46129 0.00139443L5.45711 0.00627494C5.41737 0.0488051 5.19984 0.285161 4.89515 0.628192C5.21727 0.26285 5.44177 0.0223109 5.46129 0.00139443Z" fill="url(#paint0_linear_13484_18038)"/>
<g style="mix-blend-mode:multiply" opacity="0.2">
<path d="M1.41744 10.7577C0.371616 9.83386 1.82238e-07 8.78245 1.82238e-07 7.63275C-0.000106695 7.28431 0.0467974 6.93745 0.139443 6.60156C0.134563 6.62875 -0.0794824 7.80287 0.679089 8.71622L0.366039 8.65696C0.366039 8.65696 0.642834 9.79969 1.41744 10.7577Z" fill="#BA0000"/>
</g>
<g style="mix-blend-mode:multiply" opacity="0.2">
<path d="M2.24599 4.42774L2.31571 3.48859C2.31571 3.48859 0.914304 5.0657 1.19319 6.85405C1.11477 6.64076 1.05732 6.42033 1.02167 6.19588C0.866196 5.20444 1.166 4.05055 2.50744 2.72305L5.46364 0.00390625C5.39671 0.0750223 2.53324 3.14626 2.24599 4.42774Z" fill="#BA0000"/>
</g>
<g style="mix-blend-mode:screen" opacity="0.5">
<path d="M6.38584 3.94597C5.12458 4.08541 4.53962 3.06678 4.53125 3.05144L4.82199 3.20064C4.33394 1.72394 5.03115 0.56656 5.33514 0.161477L5.45855 0.00390625C4.25794 2.32215 5.56243 3.89856 6.38584 3.94597Z" fill="#FCAB1B"/>
</g>
<g style="mix-blend-mode:screen" opacity="0.5">
<path d="M9.51923 8.12704C10.0512 6.01168 8.12479 4.99793 8.12479 4.99793L8.61284 5.07184C7.13475 3.53796 7.56075 2.13935 7.57678 2.08984C7.37877 4.02322 10.7589 4.95331 9.51923 8.12704Z" fill="#FCAB1B"/>
</g>
<g style="mix-blend-mode:screen" opacity="0.5">
<path d="M10.5993 7.63679C10.5993 9.63014 9.0849 11.3202 6.98419 11.9205C6.85172 11.9512 6.72157 11.9784 6.59375 12.0021C9.16787 11.2079 9.66778 8.74258 9.66778 8.74258L9.74238 9.35334C10.6216 8.20642 10.4619 6.61328 10.4619 6.61328C10.5531 6.9468 10.5993 7.29102 10.5993 7.63679Z" fill="#FCAB1B"/>
</g>
<g style="mix-blend-mode:multiply" opacity="0.2">
<path d="M7.42982 3.77607L7.16697 3.57527C7.16697 3.57527 7.08958 4.10864 6.52344 3.93364C6.74585 3.89669 6.91248 3.72448 6.94665 3.39539C6.98826 3.02779 7.11606 2.67519 7.31966 2.3663C7.34546 2.33005 7.37334 2.29658 7.40193 2.26172C7.40193 2.26172 7.09097 3.27896 7.42982 3.77607Z" fill="#BA0000"/>
</g>
<g style="mix-blend-mode:screen" opacity="0.5">
<path d="M1.25416 8.51333L1.33573 8.34181C1.33573 8.34181 0.455148 8.93793 0.211122 7.42707L0.319191 8.13544C0.120565 7.65013 0.0562621 7.12029 0.133034 6.60156C0.075165 8.80965 1.88793 8.70437 1.36362 7.27438C1.29948 7.14283 1.24161 7.00757 1.19001 6.8686C1.18847 6.86292 1.18661 6.85733 1.18444 6.85186L1.18025 6.82607C1.28065 6.93065 2.23654 7.99669 1.25416 8.51333Z" fill="#FCAB1B"/>
</g>
<g style="mix-blend-mode:multiply" opacity="0.2">
<path d="M10.457 6.61328C10.457 6.61328 10.4005 7.64725 10.1698 8.01259L10.1474 7.75881C10.1474 7.75881 9.91388 8.08789 9.52344 8.13042C9.77414 7.95463 9.98615 7.7293 10.1464 7.46836C10.3066 7.20742 10.4116 6.9164 10.4549 6.61328H10.457Z" fill="#BA0000"/>
</g>
<g style="mix-blend-mode:multiply" opacity="0.2">
<path d="M4.61345 5.85538C4.45646 5.92737 4.30951 6.01947 4.1763 6.12939C3.88386 6.36182 3.61842 6.62633 3.38496 6.91794C2.96663 7.42481 2.48903 8.16038 2.01562 9.21875C2.52738 7.00091 4.12122 5.84004 4.12122 5.84004C3.07121 4.58505 3.33476 3.30078 3.33476 3.30078C3.33476 3.30078 3.34382 5.11494 4.61345 5.85538Z" fill="#BA0000"/>
</g>
<defs>
<linearGradient id="paint0_linear_13484_18038" x1="5.56588" y1="-0.621917" x2="5.12314" y2="13.0268" gradientUnits="userSpaceOnUse">
<stop offset="0.03" stop-color="#FA9828"/>
<stop offset="1" stop-color="#F2313C"/>
</linearGradient>
</defs>
</svg>
