<svg fill="none" height="218" viewBox="0 0 810 218" width="810" xmlns="http://www.w3.org/2000/svg"><g fill="#fff"><path d="m61.744.00000539c-8.1497.04064481-16.2117 1.69487461-23.7254 4.86850461s-14.332 7.80479-20.0656 13.62809c-5.7335 5.8234-10.26997 12.7253-13.35025 20.3116-3.08028 7.5863-4.643975 15.7083-4.60192388 23.9023v20.7137h50.16667388v-30.01c-.0005-1.4093.2751-2.805.8112-4.1072s1.3221-2.4854 2.3132-3.4821 2.1679-1.7869 3.4629-2.3262c1.2951-.5393 2.6832-.8166 4.0849-.8164h1.8086c1.4019-.0002 2.79.2771 4.0852.8164 1.2952.5392 2.472 1.3295 3.4633 2.3262.9912.9966 1.7775 2.1799 2.3138 3.4821.5364 1.3022.8123 2.6978.812 4.1072v80.4498c6.5881 0 13.1117-1.305 19.1983-3.839 6.0866-2.535 11.6171-6.25 16.2761-10.934 4.658-4.684 8.353-10.244 10.874-16.364 2.521-6.1196 3.819-12.679 3.818-19.3028v-20.7137c.036-16.6021-6.466-32.5435-18.085-44.34-5.7014-5.8212-12.4979-10.44343-19.9936-13.59735-7.4957-3.15391-15.5408-4.77656464-23.6664-4.77314461z"/><path d="m62.6509 174.599h-1.8086c-1.4016 0-2.7894-.277-4.0844-.816-1.2949-.539-2.4715-1.33-3.4626-2.326-.9911-.997-1.7771-2.179-2.3133-3.481-.5363-1.302-.8121-2.698-.8119-4.107v-80.4492c-6.5881-.0005-13.1119 1.3036-19.1987 3.8382-6.0867 2.5346-11.6172 6.2499-16.2757 10.9337-4.6585 4.6843-8.35386 10.2443-10.87477 16.3643-2.52092 6.12-3.8180763 12.679-3.81750939 19.303v20.425c-.08357661 8.206 1.45176939 16.347 4.51722939 23.953 3.06545 7.606 7.60015 14.525 13.34195 20.357 5.7418 5.833 12.5766 10.463 20.1093 13.622 7.5327 3.16 15.6138 4.787 23.7758 4.787s16.243-1.627 23.7757-4.787c7.5327-3.159 14.3675-7.789 20.1096-13.622 5.741-5.832 10.276-12.751 13.342-20.357 3.065-7.606 4.6-15.747 4.517-23.953v-20.425h-50.1668v30.01c0 1.409-.2762 2.805-.8126 4.107-.5365 1.302-1.3228 2.485-2.314 3.481-.9913.997-2.168 1.787-3.4631 2.326-1.295.539-2.6829.816-4.0846.816z"/><path d="m209.249 63.6544h-17.583v89.6826h51.606v-16.908h-34.021z"/><path d="m299.592 96.834c-2.481-3.0987-5.656-5.5621-9.267-7.1878-3.61-1.6257-7.553-2.3676-11.504-2.1646-4.128-.0327-8.215.8256-11.985 2.5169-3.77 1.6912-7.135 4.1762-9.868 7.2868-5.868 6.6107-9.111 15.1617-9.111 24.0227s3.243 17.412 9.111 24.023c2.734 3.109 6.099 5.593 9.869 7.284 3.77 1.69 7.857 2.548 11.984 2.516 8.921 0 15.844-3.118 20.771-9.353v7.56h16.439v-64.0579h-16.439zm-5.031 37.476c-1.658 1.669-3.639 2.978-5.819 3.849-2.181.87-4.515 1.282-6.86 1.211-2.336.075-4.663-.335-6.834-1.206-2.171-.87-4.14-2.182-5.783-3.854-3.2-3.567-4.971-8.201-4.971-13.005s1.771-9.438 4.971-13.005c1.644-1.67 3.613-2.981 5.784-3.852 2.171-.87 4.497-1.281 6.833-1.207 2.344-.07 4.679.343 6.859 1.213s4.161 2.178 5.82 3.846c3.236 3.55 5.031 8.19 5.031 13.005s-1.795 9.455-5.031 13.005z"/><path d="m358.385 132.332-16.618-43.0553h-17.967l26.114 62.0113c-1.092 3.7-3.242 6.997-6.181 9.481-3.088 2.105-6.793 3.099-10.514 2.82v15.376c7.255.675 14.508-1.306 20.427-5.579 5.467-4.149 9.859-10.796 13.175-19.941l23.229-64.1641h-17.585z"/><path d="m425.623 87.4841c-4.481-.1584-8.947.6194-13.114 2.2848-4.166 1.6655-7.944 4.1822-11.094 7.3907-6.083 6.5744-9.454 15.2274-9.431 24.2064s3.439 17.614 9.556 24.157c6.372 6.404 14.825 9.606 25.358 9.608 12.23 0 21.489-4.569 27.778-13.706l-13.251-7.69c-1.685 2.15-3.864 3.857-6.35 4.973s-5.205 1.608-7.922 1.433c-9.771 0-15.76-4.013-17.969-12.041h48.041c.41-2.241.624-4.515.637-6.794.243-8.923-3.031-17.58-9.11-24.0854-2.944-3.1844-6.53-5.7006-10.519-7.3796-3.989-1.6791-8.288-2.4825-12.61-2.3569zm-16.691 27.8029c.727-3.764 2.758-7.147 5.732-9.547 3.162-2.351 7.027-3.548 10.957-3.395 3.592-.047 7.102 1.078 10.005 3.206 3.088 2.39 5.159 5.869 5.797 9.734z"/><path d="m485.766 100.297v-11.0209h-16.438v64.0599h16.438v-30.619c0-6.15 1.975-10.549 5.925-13.198 3.955-2.648 8.74-3.743 13.445-3.074v-18.4446c-4.132-.0527-8.202 1.009-11.788 3.0748-3.541 2.0657-6.23 5.3368-7.582 9.2218z"/><path d="m585.283 77.5246v-13.8702h-58.47v16.9126h36.191l-37.132 58.646v14.121h60.121v-16.907h-37.846z"/><path d="m624.799 87.4841c-4.482-.1584-8.948.6194-13.115 2.2849-4.167 1.6654-7.945 4.1821-11.096 7.3907-6.083 6.5743-9.455 15.2273-9.431 24.2073.024 8.979 3.441 17.614 9.559 24.156 6.372 6.404 14.824 9.606 25.356 9.608 12.23 0 21.489-4.569 27.78-13.706l-13.253-7.69c-1.685 2.15-3.864 3.856-6.35 4.972s-5.204 1.608-7.92 1.434c-9.772 0-15.761-4.013-17.967-12.041h48.041c.408-2.241.621-4.515.634-6.794.244-8.923-3.031-17.58-9.109-24.0854-2.944-3.1845-6.53-5.7005-10.519-7.3796s-8.288-2.4826-12.61-2.3569zm-16.692 27.8029c.728-3.765 2.76-7.148 5.735-9.547 3.162-2.352 7.027-3.549 10.957-3.395 3.592-.048 7.103 1.077 10.005 3.206 3.088 2.39 5.158 5.869 5.795 9.734z"/><path d="m684.947 100.298v-11.0213h-16.439v64.0603h16.439v-30.62c0-6.149 1.974-10.548 5.924-13.197 3.954-2.649 8.739-3.743 13.443-3.075v-18.4439c-4.131-.0523-8.201 1.0094-11.786 3.0747-3.541 2.0655-6.23 5.3366-7.581 9.2222z"/><path d="m741.774 87.4838c-7.713.0855-15.159 2.8525-21.073 7.8309-5.914 4.9783-9.932 11.8613-11.372 19.4803s-.212 15.504 3.474 22.316c3.686 6.813 9.603 12.132 16.747 15.056 7.145 2.923 15.075 3.271 22.445.983s13.725-7.07 17.987-13.534c4.261-6.464 6.166-14.211 5.391-21.927s-4.183-14.925-9.644-20.4015c-3.112-3.1966-6.844-5.7164-10.965-7.4028-4.121-1.6865-8.542-2.5036-12.99-2.4009zm12.359 46.5082c-1.612 1.636-3.54 2.923-5.666 3.781-2.125.858-4.403 1.27-6.693 1.209-2.282.065-4.553-.344-6.67-1.203s-4.034-2.148-5.632-3.787c-3.155-3.463-4.906-7.989-4.906-12.685s1.751-9.222 4.906-12.684c1.598-1.639 3.516-2.928 5.632-3.787 2.117-.859 4.388-1.269 6.67-1.204 2.289-.06 4.567.352 6.693 1.21s4.054 2.145 5.666 3.781c3.195 3.443 4.972 7.976 4.972 12.684s-1.777 9.242-4.972 12.685z"/><path d="m810 133.605h-20.007v19.731h20.007z"/></g></svg>