<svg fill="none" height="13" viewBox="0 0 11 13" width="11" xmlns="http://www.w3.org/2000/svg" xmlns:xlink="http://www.w3.org/1999/xlink"><linearGradient id="a" gradientUnits="userSpaceOnUse" x1="5.566" x2="5.123" y1="-.622" y2="13.027"><stop offset=".03" stop-color="#fa9828"/><stop offset="1" stop-color="#f2313c"/></linearGradient><path d="m6.59079 11.9991c.12782-.0237.25796-.0509.39044-.0816 2.10071-.6003 3.61507-2.29034 3.61507-4.28368-.0006-.34587-.0475-.69009-.1395-1.02351-.0433.30311-.1483.59413-.3085.85507-.16022.26094-.37223.48627-.62293.66207 1.23963-3.17512-2.14046-4.10521-1.93966-6.03859-.10607.07655-.19808.17091-.27191.27889-.2036.30889-.3314.66148-.37301 1.02909-.04044.38137-.25797.55289-.53547.54592h-.01743c-.82341-.04602-2.1279-1.62242-.9252-3.94276l-2.9562 2.71914c-1.34284 1.32959-1.642639 2.48349-1.48716 3.47493.03565.22444.09309.44487.17152.65817.00217.00547.00403.01105.00557.01673.0516.13945.10947.27471.17361.40578.52431 1.42999-1.2884555 1.53388-1.230587-.67281-.0926455.33589-.1395497.68275-.13944282 1.03118 0 1.14971.37440482 2.20111 1.41743982 3.12488.6505-1.92636 1.37421-3.11581 1.96824-3.83952.23329-.29133.49849-.5556.79064-.78786.13322-.10991.28017-.20202.43716-.274-1.26963-.74045-1.2787-2.556-1.2787-2.556.5278.79064 1.47183 1.59802 2.95202 2.30709.04113.02022.08227.03974.1241.05857 2.07492.96773 1.52621 2.18577 1.52621 2.18577-.37162-.44273-1.14065-.8262-1.14065-.8262l.22799.78506c.81156.04462 1.22571.30817 1.41675.64074.38695.67351-.13945 1.62935-.13945 1.62935.03208-.19238-.16175-.64-.50269-1.03532-.21647-.26362-.49346-.47101-.80738-.60448-.17012-.06506-.35202-.0936-.53389-.08379s-.35964.05776-.52178.14073c-.16213.08298-.30501.19912-.41934.3409-.11434.14177-.19758.30601-.24432.48204-.30608 1.21452 1.31844 2.67802 1.31844 2.67802zm-1.1295-11.99770557-.00418.00488051c-.03974.04253016-.25727.27888606-.56196.62191706.32212-.365342.54662-.6058811.56614-.62679757z" fill="url(#a)"/><path d="m1.41744 10.7577c-1.045824-.92384-1.41743982-1.97525-1.41743982-3.12495-.00010688-.34844.04679722-.6953.13944282-1.03119-.00488.02719-.2189254 1.20131.539646 2.11466l-.31305-.05926s.276795 1.14273 1.051401 2.10074z" fill="#ba0000" opacity=".2"/><path d="m2.24599 4.42774.06972-.93915s-1.401406 1.57711-1.12252 3.36546c-.07842-.21329-.13587-.43372-.17152-.65817-.155474-.99144.14433-2.14533 1.48577-3.47283l2.9562-2.71914375c-.06693.07111605-2.9304 3.14235375-3.21765 4.42383375z" fill="#ba0000" opacity=".2"/><g fill="#fcab1b"><path d="m6.38584 3.94597c-1.26126.13944-1.84622-.87919-1.85459-.89453l.29074.1492c-.48805-1.4767.20916-2.63408.51315-3.039163l.12341-.15757075c-1.20061 2.31824375.10388 3.89465375.92729 3.94206375z" opacity=".5"/><path d="m9.51923 8.12704c.53197-2.11536-1.39444-3.12911-1.39444-3.12911l.48805.07391c-1.47809-1.53388-1.05209-2.93249-1.03606-2.982-.19801 1.93338 3.18212 2.86347 1.94245 6.0372z" opacity=".5"/><path d="m10.5993 7.63679c0 1.99335-1.5144 3.68341-3.61511 4.28371-.13247.0307-.26262.0579-.39044.0816 2.57412-.7942 3.07403-3.25952 3.07403-3.25952l.0746.61076c.87922-1.14692.71952-2.74006.71952-2.74006.0912.33352.1374.67774.1374 1.02351z" opacity=".5"/></g><path d="m7.42982 3.77607-.26285-.2008s-.07739.53337-.64353.35837c.22241-.03695.38904-.20916.42321-.53825.04161-.3676.16941-.7202.37301-1.02909.0258-.03625.05368-.06972.08227-.10458 0 0-.31096 1.01724.02789 1.51435z" fill="#ba0000" opacity=".2"/><path d="m1.25416 8.51333.08157-.17152s-.880582.59612-1.124608-.91474l.108069.70837c-.198626-.48531-.2629289-1.01515-.186157-1.53388-.057869 2.20809 1.754896 2.10281 1.230586.67282-.06414-.13155-.12201-.26681-.17361-.40578-.00154-.00568-.0034-.01127-.00557-.01674l-.00419-.02579c.1004.10458 1.05629 1.17062.07391 1.68726z" fill="#fcab1b" opacity=".5"/><path d="m10.457 6.61328s-.0565 1.03397-.2872 1.39931l-.0224-.25378s-.23352.32908-.62396.37161c.2507-.17579.46271-.40112.62296-.66206.1602-.26094.2652-.55196.3085-.85508z" fill="#ba0000" opacity=".2"/><path d="m4.61345 5.85538c-.15699.07199-.30394.16409-.43715.27401-.29244.23243-.55788.49694-.79134.78855-.41833.50687-.89593 1.24244-1.36934 2.30081.51176-2.21784 2.1056-3.37871 2.1056-3.37871-1.05001-1.25499-.78646-2.53926-.78646-2.53926s.00906 1.81416 1.27869 2.5546z" fill="#ba0000" opacity=".2"/></svg>